<svg width="11" height="3" viewBox="0 0 11 3" fill="none" xmlns="http://www.w3.org/2000/svg">
<path d="M9.94868 0.53897H6.7947L4.90191 0.538982C4.5 0.5 4.94171 1.03898 4.94171 0.538982C4.44171 1.53898 5 0.5 4.90191 0.538982L4.69204 0.53897H1.53806C0.957464 0.53897 0.486732 0.992534 0.486732 1.55196C0.486732 2.11138 0.957464 2.56494 1.53806 2.56494H5.74337V1.98702C6.7947 1.9089 5.16277 1.95187 5.74337 1.95187C5.74337 -2.67801 5.74337 3.12437 5.74337 2.56494H6.7947H9.94868C10.5293 2.56494 11 2.11138 11 1.55196C11 0.992534 10.5293 0.53897 9.94868 0.53897Z" fill="white"/>
</svg>
